<svg width="94" height="92" viewBox="0 0 94 92" fill="none" xmlns="http://www.w3.org/2000/svg">
<g clip-path="url(#clip0_99_422)">
<path d="M50.4106 0.69458L53.3584 1.05171C53.561 1.07836 54.142 1.14766 54.6004 1.26493C56.7753 1.83527 57.6495 3.98872 57.3457 6.46199C57.0419 8.95126 55.6772 10.8169 53.433 10.8489C52.9746 10.8542 52.3669 10.7796 52.1803 10.7582L49.2325 10.4011L50.4106 0.69458ZM52.2923 9.80944C52.6548 9.85208 53.1292 9.8894 53.449 9.86807C55.1868 9.77746 56.061 8.26898 56.2956 6.33407C56.5355 4.37251 56.029 2.72544 54.3819 2.21905C54.078 2.12311 53.5983 2.04315 53.2465 2.00051L51.3221 1.76598L50.3733 9.57491L52.2923 9.80944Z" fill="#1D1D1B"/>
<path d="M61.0665 2.46954L66.8182 4.54837L66.493 5.44919L61.6795 3.7115L60.5281 6.89371L64.574 8.35422L64.2489 9.25505L60.2029 7.79454L59.0035 11.11L63.8171 12.8477L63.4919 13.7485L57.7402 11.6697L61.0665 2.46421V2.46954ZM65.5708 0.625244L66.3758 0.918412L64.8939 2.62412L64.0889 2.33095L65.5708 0.625244Z" fill="#1D1D1B"/>
<path d="M66.4184 9.62291C68.0443 7.09101 70.5017 6.19018 72.9591 7.76796C74.8674 8.99394 75.4218 10.8382 74.8141 12.7785L73.812 12.4533C74.2971 10.9342 73.9133 9.52697 72.442 8.57817C70.507 7.3362 68.6413 8.15174 67.3033 10.1986C65.9707 12.2508 66.04 14.3029 67.975 15.5449C69.4515 16.4937 70.8855 16.2538 72.0689 15.1771L72.7832 15.95C71.2746 17.3092 69.3663 17.5758 67.4579 16.3498C65.0005 14.772 64.7926 12.1601 66.4184 9.62824V9.62291Z" fill="#1D1D1B"/>
<path d="M75.0966 15.417C77.3195 13.3861 79.9315 13.1462 81.9038 15.305C83.8815 17.4691 83.4071 20.0437 81.1842 22.0799C78.9613 24.1161 76.3493 24.3506 74.3717 22.1865C72.3993 20.0277 72.8684 17.4531 75.0966 15.417ZM75.0806 21.5362C76.6265 23.2365 78.6628 22.9434 80.4646 21.291C82.2716 19.6386 82.7301 17.6557 81.1895 15.95C79.6437 14.2496 77.6287 14.5641 75.8056 16.2005C73.9825 17.8369 73.5348 19.8358 75.0753 21.5362H75.0806Z" fill="#1D1D1B"/>
<path d="M81.0829 24.4253L86.6161 21.5149L87.0905 22.4051L81.6693 25.2568C79.8622 26.2056 79.8036 27.9966 80.3899 29.1106C80.9816 30.2353 82.4902 31.1894 84.2866 30.2406L89.7078 27.3889L90.1769 28.2791L84.6384 31.1894C82.6448 32.2342 80.5925 31.5252 79.5477 29.5477C78.5029 27.5701 79.0733 25.4807 81.0776 24.4253H81.0829Z" fill="#1D1D1B"/>
<path d="M91.2004 30.9016L91.4563 31.909L83.7962 36.9142L92.9169 37.7138L93.1727 38.7212L82.8633 37.8417L82.5382 36.5571L91.2004 30.9016Z" fill="#1D1D1B"/>
<path d="M93.4499 41.4075L93.5406 45.1813C93.5406 45.3732 93.5405 45.6238 93.5032 45.869C93.3007 47.4041 92.1066 48.2889 90.5767 48.3262C89.2921 48.3582 88.2206 47.7772 87.7515 46.6898L83.8388 48.7153L83.8122 47.5693L87.485 45.6824L87.4103 42.5588L83.6949 42.6494L83.6736 41.6527L93.4553 41.4181L93.4499 41.4075ZM88.4232 45.2773C88.4232 45.4425 88.4445 45.6771 88.4978 45.8796C88.7323 46.8817 89.6385 47.3188 90.5501 47.2975C91.4616 47.2762 92.3465 46.7911 92.5384 45.7837C92.5757 45.5811 92.581 45.3413 92.5757 45.176L92.5117 42.4256L88.3539 42.5268L88.4178 45.2773H88.4232Z" fill="#1D1D1B"/>
<path d="M93.2154 51.2635L93.0875 52.2549L83.3911 50.9809L83.519 49.9895L93.2154 51.2635Z" fill="#1D1D1B"/>
<path d="M92.6397 55.437L91.5683 59.0616C91.515 59.2429 91.4297 59.4827 91.323 59.7066C90.6621 61.1031 89.2548 61.5829 87.7888 61.1458C86.5575 60.7833 85.7152 59.8985 85.6033 58.7205L81.2589 59.4454L81.584 58.342L85.6566 57.6704L86.5415 54.6748L82.9753 53.6194L83.2578 52.6599L92.6397 55.437ZM86.6694 57.5798C86.6215 57.7344 86.5681 57.9689 86.5575 58.1768C86.4722 59.2002 87.2025 59.8985 88.0767 60.1544C88.9509 60.4102 89.9424 60.2236 90.4328 59.3228C90.5288 59.1416 90.6087 58.9124 90.6567 58.7578L91.435 56.1193L87.4477 54.9413L86.6694 57.5798Z" fill="#1D1D1B"/>
<path d="M86.1044 70.9002L84.2653 73.2349C84.1374 73.3948 83.7749 73.8532 83.4391 74.1837C81.8186 75.7455 79.5211 75.3723 77.5647 73.8265C75.5977 72.2701 74.7129 70.1326 75.8536 68.1977C76.0881 67.8033 76.4666 67.3235 76.5839 67.1743L78.423 64.8396L86.1044 70.9055V70.9002ZM77.3302 67.7606C77.101 68.0485 76.8238 68.4322 76.6798 68.7201C75.8536 70.2499 76.6852 71.785 78.2204 72.995C79.7716 74.221 81.4454 74.6474 82.7354 73.5014C82.9753 73.2935 83.2951 72.9204 83.5137 72.6432L84.7131 71.1241L78.5349 66.2468L77.3355 67.7659L77.3302 67.7606Z" fill="#1D1D1B"/>
<path d="M79.0466 79.0611L74.2864 82.9043L73.684 82.1581L77.666 78.9439L75.5391 76.3107L72.1915 79.0132L71.5891 78.2669L74.9367 75.5644L72.7192 72.8193L68.7372 76.0335L68.1349 75.2873L72.8951 71.4441L79.0466 79.0558V79.0611ZM78.2897 83.8638L77.6233 84.4021L76.9357 82.2487L77.602 81.7103L78.2897 83.8638Z" fill="#1D1D1B"/>
<path d="M70.1499 79.9406C71.4772 82.6431 70.9708 85.2123 68.3481 86.5023C66.3118 87.5044 64.4461 87.0193 63.1028 85.4948L63.9024 84.8072C64.9525 86.0119 66.3545 86.4116 67.927 85.6387C69.9899 84.626 70.2618 82.6111 69.201 80.4044C68.1349 78.2029 66.3438 77.2008 64.2809 78.2083C62.7083 78.9812 62.1699 80.3351 62.4738 81.9022L61.4396 82.1154C61.0612 80.1219 61.8181 78.3522 63.8544 77.3501C66.4771 76.0601 68.8172 77.2381 70.1445 79.9406H70.1499Z" fill="#1D1D1B"/>
<path d="M60.7093 84.354C61.2904 87.307 60.1389 89.663 57.2711 90.2227C54.3979 90.7877 52.4415 89.0447 51.8605 86.0917C51.2795 83.1387 52.4309 80.7827 55.3094 80.2177C58.1773 79.6526 60.1336 81.3957 60.7146 84.354H60.7093ZM55.4906 81.1611C53.2358 81.5982 52.4255 83.4851 52.9 85.8891C53.3691 88.2878 54.8297 89.7163 57.0845 89.2845C59.3394 88.8474 60.1176 86.9658 59.6698 84.5565C59.2221 82.1472 57.7455 80.7294 55.4906 81.1611Z" fill="#1D1D1B"/>
<path d="M49.8882 84.7751L49.4991 91.0116L48.4969 90.9583L48.8754 84.8444C49.0033 82.8082 47.5054 81.8327 46.2474 81.7528C44.9787 81.6728 43.3848 82.4671 43.2569 84.4926L42.8784 90.6065L41.8763 90.5425L42.2654 84.3007C42.404 82.0566 44.0778 80.6707 46.3114 80.8093C48.5449 80.9479 50.0321 82.5204 49.8935 84.7751H49.8882Z" fill="#1D1D1B"/>
<path d="M39.099 90.0734L38.1022 89.7696L37.7984 80.6174L32.3771 88.0052L31.3803 87.7014L37.4839 79.3381L38.7525 79.7272L39.0937 90.0787L39.099 90.0734Z" fill="#1D1D1B"/>
<path d="M28.9389 86.5395L25.6659 84.6526C25.5006 84.5566 25.2874 84.418 25.1008 84.2635C23.8961 83.2933 23.7575 81.8115 24.5251 80.4896C25.1648 79.3755 26.2203 78.7572 27.393 78.9278L27.6968 74.5303L28.6937 75.1059L28.4005 79.2263L31.1084 80.7881L32.9635 77.5686L33.827 78.0696L28.9442 86.5502L28.9389 86.5395ZM28.2406 80.2337C28.0966 80.1538 27.8834 80.0472 27.6862 79.9832C26.7107 79.6634 25.8631 80.2124 25.4047 81.0013C24.9516 81.7902 24.9036 82.7976 25.6659 83.4906C25.8205 83.6291 26.023 83.7571 26.1616 83.837L28.5444 85.2123L30.618 81.6089L28.2352 80.2337H28.2406Z" fill="#1D1D1B"/>
<path d="M20.6498 81.2303L19.8715 80.6014L26.0071 72.979L26.7853 73.608L20.6498 81.2303Z" fill="#1D1D1B"/>
<path d="M17.3821 78.5654L14.8394 75.767C14.7115 75.6284 14.5516 75.4311 14.4183 75.2233C13.5654 73.9333 13.8906 72.4781 15.026 71.4494C15.9802 70.5859 17.1689 70.3194 18.2403 70.8417L19.8768 66.748L20.6498 67.6009L19.1092 71.4334L21.2095 73.7468L23.9654 71.2468L24.6371 71.9878L17.3874 78.5707L17.3821 78.5654ZM18.6508 72.3449C18.5389 72.2223 18.3683 72.057 18.1977 71.9398C17.3661 71.3375 16.3906 71.5986 15.7136 72.2116C15.0366 72.8246 14.6848 73.7681 15.2019 74.6636C15.3085 74.8395 15.4578 75.026 15.5697 75.1486L17.4194 77.1902L20.5005 74.3917L18.6508 72.3502V72.3449Z" fill="#1D1D1B"/>
<path d="M9.0397 67.8568L7.803 65.1543C7.71771 64.9677 7.4725 64.4347 7.33391 63.9869C6.68357 61.8335 8.0642 59.9572 10.3297 58.9231C12.6112 57.8784 14.914 58.0649 16.1241 59.9625C16.3693 60.3517 16.6252 60.906 16.7051 61.0819L17.9418 63.7844L9.0397 67.8621V67.8568ZM15.8309 61.4817C15.6763 61.1459 15.4631 60.7248 15.2765 60.4636C14.2904 59.0297 12.5472 59.0724 10.7722 59.8879C8.9704 60.7141 7.82965 62.0041 8.26676 63.6725C8.34139 63.9816 8.52796 64.4347 8.67189 64.7598L9.47681 66.5242L16.6358 63.246L15.8309 61.487V61.4817Z" fill="#1D1D1B"/>
<path d="M1.07044 54.9679L0.894531 54.1311L3.12273 54.5042L3.29864 55.3411L1.07044 54.9679ZM4.99377 57.841L3.75707 51.855L4.69526 51.6631L5.7294 56.6736L9.04504 55.9914L8.17615 51.7804L9.11434 51.5885L9.98322 55.7995L13.4375 55.0852L12.4033 50.0747L13.3415 49.8828L14.5782 55.8688L4.9991 57.8463L4.99377 57.841Z" fill="#1D1D1B"/>
<path d="M8.28809 49.5577C5.28163 49.5044 3.22401 47.884 3.27732 44.963C3.31996 42.6922 4.59931 41.2584 6.56631 40.7573L6.81151 41.7807C5.26031 42.1699 4.26348 43.2306 4.2315 44.9843C4.18885 47.2816 5.86266 48.4437 8.30409 48.5076C10.7508 48.5663 12.462 47.4256 12.5046 45.1335C12.5366 43.3798 11.5771 42.2818 10.0419 41.8447L10.3244 40.8319C12.2701 41.4023 13.5014 42.8841 13.4588 45.1548C13.4055 48.0759 11.2946 49.6217 8.28276 49.5684L8.28809 49.5577Z" fill="#1D1D1B"/>
<path d="M8.66122 39.1155C5.7667 38.2893 4.1995 36.1892 5.00442 33.3801C5.80934 30.5657 8.25076 29.6169 11.1453 30.4484C14.0398 31.2799 15.607 33.3748 14.8021 36.1892C13.9972 38.9983 11.5557 39.9471 8.66122 39.1155ZM13.8799 35.9227C14.5196 33.7159 13.2029 32.1381 10.8521 31.4665C8.5013 30.7949 6.57162 31.4399 5.92128 33.6466C5.28161 35.8534 6.6036 37.4045 8.94907 38.0974C11.2945 38.7904 13.2296 38.1294 13.8746 35.9227H13.8799Z" fill="#1D1D1B"/>
<path d="M13.2083 29.281L7.84033 26.0828L8.35207 25.214L13.6134 28.3482C15.3672 29.393 16.9237 28.5081 17.5687 27.4261C18.219 26.3334 18.2457 24.553 16.4972 23.5136L11.2359 20.3794L11.753 19.5159L17.1263 22.7194C19.0613 23.8707 19.525 25.9922 18.3843 27.9165C17.2435 29.8407 15.1593 30.443 13.2136 29.2864L13.2083 29.281Z" fill="#1D1D1B"/>
<path d="M13.4215 17.2932L14.1464 16.5469L22.4302 20.4434L18.3256 12.256L19.0506 11.5098L23.7149 20.7526L22.7874 21.7014L13.4215 17.2878V17.2932Z" fill="#1D1D1B"/>
<path d="M21.1988 9.85199L24.3705 7.79449C24.5305 7.69321 24.749 7.56528 24.9782 7.46401C26.3908 6.8297 27.7715 7.38405 28.603 8.66866C29.3014 9.74539 29.3707 10.966 28.6883 11.9362L32.4677 14.2069L31.5029 14.8305L27.9687 12.6931L25.346 14.3934L27.3717 17.5117L26.5348 18.0554L21.2042 9.84666L21.1988 9.85199ZM27.1318 12.1014C27.2704 12.0108 27.4623 11.8722 27.6062 11.7229C28.3365 10.998 28.2352 9.99591 27.7395 9.22835C27.2437 8.46611 26.3695 7.96506 25.4047 8.32752C25.2128 8.40215 25.0049 8.52474 24.8663 8.61003L22.5581 10.1079L24.8236 13.5992L27.1318 12.1014Z" fill="#1D1D1B"/>
<path d="M29.6958 4.89485L30.6074 4.48975L34.6 13.4287L33.6885 13.8338L29.6958 4.89485Z" fill="#1D1D1B"/>
<path d="M33.5659 3.19985L37.2173 2.21907C37.3986 2.17109 37.6491 2.11779 37.8943 2.09114C39.4349 1.9259 40.5756 2.8747 40.9754 4.3512C41.3112 5.59316 41.0021 6.77117 40.0532 7.48543L42.9477 10.8116L41.839 11.1101L39.1363 7.98648L36.1139 8.79669L37.0787 12.3893L36.1139 12.6505L33.5712 3.19985H33.5659ZM38.518 7.16561C38.6779 7.12297 38.9018 7.04834 39.0884 6.94707C40.0052 6.48333 40.2185 5.49722 39.9839 4.61771C39.7494 3.73821 39.067 2.99196 38.0382 3.04527C37.8303 3.06126 37.5958 3.10923 37.4412 3.15187L34.7812 3.86614L35.8633 7.8852L38.5233 7.17094L38.518 7.16561Z" fill="#1D1D1B"/>
</g>
<defs>
<clipPath id="clip0_99_422">
<rect width="92.646" height="90.3864" fill="white" transform="translate(0.894531 0.625244)"/>
</clipPath>
</defs>
</svg>
