<svg width="173" height="86" viewBox="0 0 173 86" fill="none" xmlns="http://www.w3.org/2000/svg">
<path d="M135.512 30.3881C134.701 30.3881 133.923 30.0662 133.349 29.4931C132.774 28.92 132.451 28.1426 132.45 27.3314V0.00012207H42.8C19.1622 0.00012207 0 19.1624 0 42.8002C0 66.438 19.1622 85.6002 42.8 85.6002H132.444V43.7873C132.443 43.3849 132.522 42.9864 132.676 42.6145C132.829 42.2426 133.055 41.9048 133.339 41.6202C133.624 41.3357 133.962 41.1102 134.334 40.9566C134.705 40.8029 135.104 40.7242 135.506 40.7249C136.319 40.7249 137.097 41.0476 137.672 41.6219C138.246 42.1962 138.569 42.9751 138.569 43.7873V85.6002H172.187V0.00012207H138.591V27.3314C138.59 27.7345 138.51 28.1334 138.355 28.5054C138.2 28.8774 137.972 29.2151 137.686 29.4991C137.4 29.7831 137.061 30.0078 136.688 30.1604C136.315 30.3129 135.915 30.3903 135.512 30.3881Z" fill="#191919"/>
<path d="M96.0124 46.4727V40.5236L94.1056 46.4727H92.5209L90.614 40.5236V46.4727H89.5879V39.9547H91.4973L93.3158 45.67L95.1343 39.9547H97.0438V46.4727H96.0124Z" fill="#EDE9E3"/>
<path d="M99.3284 39.9547V43.8099C99.314 44.0494 99.3482 44.2894 99.429 44.5153C99.5098 44.7412 99.6356 44.9484 99.7986 45.1245C100.136 45.4243 100.572 45.5899 101.024 45.5899C101.475 45.5899 101.911 45.4243 102.248 45.1245C102.412 44.9488 102.538 44.7416 102.619 44.5156C102.7 44.2896 102.734 44.0495 102.719 43.8099V39.9547H103.742V43.8671C103.753 44.3576 103.639 44.8428 103.412 45.2777C103.195 45.68 102.864 46.0097 102.461 46.226C102.015 46.4497 101.523 46.5662 101.024 46.5662C100.524 46.5662 100.032 46.4497 99.5856 46.226C99.1799 46.0109 98.8465 45.6811 98.627 45.2777C98.4 44.8428 98.2866 44.3576 98.2971 43.8671V39.9547H99.3284Z" fill="#EDE9E3"/>
<path d="M108.238 41.142C107.955 40.9316 107.608 40.8252 107.256 40.8407C106.959 40.8287 106.666 40.9105 106.419 41.0745C106.323 41.1344 106.244 41.2175 106.189 41.316C106.133 41.4144 106.104 41.5252 106.102 41.6382C106.102 41.7845 106.146 41.9275 106.227 42.0491C106.309 42.1707 106.424 42.2655 106.559 42.3215C106.942 42.5062 107.349 42.6365 107.767 42.7085C108.376 42.7916 108.954 43.0216 109.453 43.3788C109.637 43.5273 109.783 43.7167 109.88 43.9319C109.977 44.1472 110.022 44.3821 110.012 44.618C110.017 44.9768 109.906 45.3275 109.695 45.6181C109.465 45.9278 109.155 46.1693 108.799 46.317C108.379 46.4942 107.927 46.5826 107.471 46.5768C106.86 46.5793 106.259 46.4235 105.726 46.1247C105.439 45.9543 105.189 45.7287 104.99 45.4612C104.792 45.1937 104.648 44.8894 104.567 44.566L105.544 43.9607C105.628 44.4293 105.868 44.8558 106.224 45.1713C106.58 45.457 107.026 45.6054 107.482 45.5896C107.853 45.6061 108.22 45.516 108.542 45.3298C108.662 45.2629 108.762 45.1654 108.832 45.0472C108.903 44.9291 108.94 44.7944 108.942 44.6569C108.942 44.5301 108.91 44.4052 108.85 44.2939C108.789 44.1826 108.701 44.0885 108.594 44.0205C108.229 43.8109 107.825 43.6791 107.406 43.6334C106.785 43.5557 106.192 43.3274 105.679 42.9683C105.48 42.8109 105.322 42.6083 105.218 42.3774C105.113 42.1464 105.066 41.8939 105.079 41.6408C105.078 41.324 105.177 41.0151 105.362 40.7575C105.564 40.4727 105.84 40.2475 106.159 40.1055C106.534 39.9388 106.941 39.8563 107.352 39.8639C107.869 39.8558 108.378 39.9994 108.814 40.2769C109.242 40.5522 109.563 40.9644 109.726 41.446L108.757 42.0045C108.687 41.6662 108.504 41.3619 108.238 41.142Z" fill="#EDE9E3"/>
<path d="M115.735 39.9547V40.9341H112.01V42.6097H115.455V43.5865H112.01V45.4907H115.826V46.4675H110.986V39.9547H115.735ZM113.693 37.9569H114.951V38.1128L113.823 39.2013H112.891L113.693 37.9569Z" fill="#EDE9E3"/>
<path d="M121.714 39.9547V40.9341H117.988V42.6097H121.433V43.5865H117.988V45.4908H121.807V46.4676H116.965V39.9547H121.714Z" fill="#EDE9E3"/>
<path d="M94.5811 50.3024H97.049C97.6692 50.2835 98.2833 50.4297 98.8286 50.7259C99.3061 50.9961 99.6916 51.4033 99.9353 51.8949C100.193 52.4282 100.321 53.0147 100.309 53.6069C100.319 54.1798 100.188 54.7463 99.9275 55.2565C99.6733 55.7389 99.2842 56.137 98.8078 56.4022C98.2682 56.6931 97.6618 56.8374 97.049 56.8204H94.5811V50.3024ZM95.6072 55.8826H97.049C97.4773 55.8957 97.9005 55.7876 98.27 55.5709C98.5966 55.3724 98.8597 55.0849 99.0286 54.7422C99.2023 54.3872 99.2913 53.9968 99.2884 53.6017C99.2932 53.1796 99.2045 52.7618 99.0286 52.3781C98.8663 52.0283 98.603 51.7352 98.2726 51.5364C97.8998 51.3209 97.4742 51.2139 97.0438 51.2272H95.602L95.6072 55.8826Z" fill="#EDE9E3"/>
<path d="M102.245 50.3021V51.6998C102.259 51.8241 102.241 51.9501 102.191 52.065C102.141 52.1799 102.062 52.2797 101.962 52.3544C101.738 52.485 101.481 52.5482 101.221 52.5363H100.941V51.9855H101.281C101.554 51.9855 101.692 51.892 101.692 51.7076C101.695 51.6685 101.689 51.6293 101.674 51.5928C101.66 51.5564 101.637 51.5237 101.609 51.4971C101.541 51.4471 101.459 51.4223 101.375 51.427H101.133V50.3099L102.245 50.3021Z" fill="#EDE9E3"/>
<path d="M105.095 50.3021H106.51L109.191 56.8202H108.035L107.412 55.2381H104.191L103.567 56.8202H102.414L105.095 50.3021ZM107.051 54.3054L105.801 51.149L104.554 54.3054H107.051Z" fill="#EDE9E3"/>
<path d="M113.976 56.82C113.892 56.6475 113.832 56.4638 113.8 56.2744C113.756 55.9612 113.738 55.645 113.745 55.3288C113.745 54.8768 113.644 54.5494 113.446 54.3858C113.2 54.1959 112.892 54.1034 112.581 54.126H110.997V56.8278H109.973V50.3019H113.091C113.479 50.2922 113.864 50.3722 114.215 50.5357C114.514 50.6723 114.765 50.8937 114.938 51.1722C115.102 51.443 115.188 51.7543 115.184 52.0711C115.195 52.4548 115.074 52.8307 114.842 53.1362C114.592 53.4447 114.258 53.6733 113.88 53.7935C114.175 53.9006 114.431 54.0933 114.616 54.3468C114.805 54.6433 114.906 54.9875 114.906 55.3392C114.915 55.6211 114.941 55.9022 114.984 56.1809C115.018 56.3647 115.104 56.5351 115.231 56.6719V56.82H113.976ZM113 53.1414C113.294 53.1597 113.585 53.0742 113.823 52.8998C113.916 52.8106 113.99 52.7035 114.041 52.585C114.091 52.4664 114.117 52.3389 114.117 52.2101C114.117 52.0812 114.091 51.9537 114.041 51.8352C113.99 51.7166 113.916 51.6096 113.823 51.5203C113.585 51.3459 113.294 51.2604 113 51.2787H110.997V53.1414H113Z" fill="#EDE9E3"/>
<path d="M121.623 51.2789H119.248V56.8202H118.225V51.2789H115.85V50.3021H121.623V51.2789Z" fill="#EDE9E3"/>
<path d="M61.2562 60.0857V61.0651H57.5335V62.7407H60.9782V63.7175H57.5335V65.6269H61.3497V66.6037H56.5073V60.0857H61.2562Z" fill="#EDE9E3"/>
<path d="M67.8501 61.0651H65.4756V66.6037H64.4521V61.0651H62.0776V60.0857H67.8501V61.0651Z" fill="#EDE9E3"/>
<path d="M71.0137 60.0859H73.4816C74.1024 60.0707 74.7162 60.2194 75.2612 60.5172C75.7393 60.7866 76.125 61.1941 76.3679 61.6862C76.6254 62.2204 76.7536 62.8078 76.742 63.4008C76.7518 63.9728 76.6207 64.5385 76.3601 65.0478C76.1076 65.5306 75.7192 65.9289 75.243 66.1935C74.7028 66.4852 74.0953 66.6295 73.4816 66.6117H71.0137V60.0859ZM72.0398 65.6739H73.4816C73.9099 65.687 74.3331 65.5789 74.7026 65.3622C75.0292 65.1637 75.2924 64.8762 75.4612 64.5334C75.6359 64.1789 75.7249 63.7882 75.721 63.393C75.7254 62.9701 75.6368 62.5515 75.4612 62.1668C75.2983 61.8175 75.0351 61.5245 74.7052 61.3251C74.3323 61.1103 73.9066 61.0041 73.4764 61.0185H72.0398V65.6739Z" fill="#EDE9E3"/>
<path d="M78.6772 60.0857V61.4833C78.6914 61.6081 78.6728 61.7344 78.6231 61.8497C78.5734 61.965 78.4944 62.0653 78.394 62.1406C78.1694 62.2701 77.9126 62.3332 77.6536 62.3225H77.373V61.7639H77.7108C77.9835 61.7639 78.1186 61.6704 78.1186 61.4833C78.1215 61.4443 78.1156 61.405 78.1012 61.3686C78.0868 61.3322 78.0643 61.2995 78.0355 61.2729C77.968 61.2234 77.8852 61.1995 77.8017 61.2054H77.5601V60.0857H78.6772Z" fill="#EDE9E3"/>
<path d="M80.7999 63.8578V66.6037H79.7764V60.0857H80.7999V62.9278H84.3382V60.0857H85.3774V66.6037H84.3382V63.8578H80.7999Z" fill="#EDE9E3"/>
<path d="M86.7046 60.0857H87.7281V66.6037H86.7046V60.0857Z" fill="#EDE9E3"/>
<path d="M92.3039 61.2731C92.021 61.0627 91.6741 60.9563 91.3219 60.9718C91.0217 60.956 90.7242 61.0361 90.4724 61.2004C90.377 61.2605 90.2981 61.3436 90.2432 61.4421C90.1883 61.5406 90.159 61.6513 90.158 61.7641C90.1583 61.91 90.2016 62.0527 90.2825 62.1742C90.3633 62.2957 90.4782 62.3907 90.6127 62.4473C90.9962 62.632 91.4037 62.7623 91.8233 62.8344C92.4312 62.9185 93.0096 63.1484 93.5093 63.5047C93.6923 63.6536 93.8381 63.8431 93.9351 64.0582C94.0321 64.2733 94.0775 64.5081 94.0678 64.7439C94.0714 65.1025 93.9604 65.4529 93.7509 65.744C93.5198 66.0538 93.2092 66.2952 92.852 66.4429C92.4322 66.6203 91.9802 66.7087 91.5245 66.7026C90.9133 66.7052 90.3119 66.5494 89.7788 66.2506C89.4925 66.0799 89.2428 65.8543 89.0439 65.5868C88.8451 65.3194 88.7011 65.0152 88.6201 64.6919L89.5969 64.0866C89.6824 64.5548 89.922 64.9809 90.2776 65.2972C90.633 65.5829 91.0792 65.7313 91.5349 65.7155C91.9067 65.7324 92.2755 65.6422 92.5974 65.4557C92.7176 65.3888 92.8178 65.2913 92.8881 65.1731C92.9584 65.0549 92.9961 64.9203 92.9975 64.7828C92.998 64.6557 92.966 64.5305 92.9046 64.4191C92.8433 64.3078 92.7545 64.2139 92.6468 64.1463C92.2822 63.9363 91.8779 63.8045 91.4596 63.7593C90.8383 63.6811 90.2454 63.4528 89.732 63.0942C89.5334 62.9368 89.3753 62.7342 89.2709 62.5032C89.1666 62.2723 89.1189 62.0198 89.1319 61.7667C89.1325 61.4496 89.2325 61.1408 89.4177 60.8834C89.6219 60.5969 89.9003 60.3715 90.223 60.2314C90.5971 60.0645 91.0033 59.982 91.4128 59.9898C91.9303 59.9812 92.4389 60.1249 92.8754 60.4028C93.3036 60.6773 93.6252 61.0897 93.7873 61.5719L92.8235 62.1356C92.7529 61.7976 92.5697 61.4935 92.3039 61.2731Z" fill="#EDE9E3"/>
<path d="M100.169 61.0651H97.7947V66.6037H96.7685V61.0651H94.394V60.0857H100.169V61.0651Z" fill="#EDE9E3"/>
<path d="M100.852 61.6549C101.148 61.1491 101.572 60.7306 102.081 60.4417C102.607 60.1487 103.198 59.9949 103.8 59.9949C104.401 59.9949 104.993 60.1487 105.518 60.4417C106.028 60.7306 106.452 61.1491 106.747 61.6549C106.97 62.0368 107.116 62.4591 107.175 62.8975C107.234 63.336 107.206 63.7818 107.091 64.2091C106.977 64.6365 106.779 65.037 106.509 65.3874C106.239 65.7378 105.902 66.0312 105.518 66.2505C104.993 66.5436 104.401 66.6974 103.8 66.6974C103.198 66.6974 102.607 66.5436 102.081 66.2505C101.571 65.9615 101.147 65.5419 100.852 65.0347C100.556 64.5213 100.4 63.939 100.4 63.3461C100.4 62.7533 100.556 62.1709 100.852 61.6575V61.6549ZM101.782 64.5931C101.981 64.9442 102.273 65.2329 102.627 65.427C102.986 65.6236 103.389 65.7247 103.798 65.7206C104.209 65.7259 104.614 65.6229 104.973 65.4218C105.324 65.2251 105.615 64.9358 105.814 64.5853C106.017 64.2038 106.123 63.7783 106.123 63.3461C106.123 62.914 106.017 62.4885 105.814 62.107C105.618 61.7562 105.329 61.4666 104.978 61.2704C104.614 61.0735 104.208 60.9704 103.794 60.9704C103.381 60.9704 102.974 61.0735 102.611 61.2704C102.26 61.4696 101.97 61.7617 101.775 62.1147C101.564 62.4932 101.457 62.9208 101.465 63.3539C101.458 63.7879 101.568 64.2159 101.782 64.5931Z" fill="#EDE9E3"/>
<path d="M108.259 60.0857H109.285V66.6037H108.259V60.0857Z" fill="#EDE9E3"/>
<path d="M114.63 66.6037C114.545 66.432 114.486 66.2492 114.453 66.0607C114.407 65.7478 114.388 65.4314 114.396 65.1151C114.396 64.6631 114.297 64.3358 114.1 64.1695C113.852 63.9792 113.543 63.8868 113.232 63.9097H111.65V66.6089H110.626V60.0857H113.744C114.133 60.0757 114.519 60.1557 114.871 60.3195C115.164 60.4539 115.412 60.6706 115.584 60.9432C115.756 61.2158 115.845 61.5325 115.84 61.8548C115.851 62.2399 115.729 62.6169 115.495 62.9225C115.247 63.2308 114.913 63.4593 114.536 63.5798C114.831 63.6861 115.088 63.8789 115.271 64.1331C115.461 64.4283 115.561 64.7721 115.56 65.1229C115.569 65.4057 115.596 65.6877 115.64 65.9672C115.675 66.1501 115.76 66.3194 115.887 66.4556V66.6037H114.63ZM113.65 62.9277C113.946 62.9464 114.239 62.8599 114.477 62.6835C114.569 62.5945 114.643 62.4877 114.694 62.3694C114.744 62.251 114.77 62.1237 114.77 61.9951C114.77 61.8665 114.744 61.7391 114.694 61.6208C114.643 61.5025 114.569 61.3957 114.477 61.3067C114.238 61.1322 113.946 61.0468 113.65 61.0651H111.65V62.9277H113.65Z" fill="#EDE9E3"/>
<path d="M121.714 60.0857V61.0651H117.991V62.7407H121.436V63.7175H117.991V65.6269H121.807V66.6037H116.967V60.0857H121.714Z" fill="#EDE9E3"/>
<path d="M56.5073 69.8726H58.9753C59.5955 69.8537 60.2096 69.9998 60.7548 70.296C61.2323 70.5663 61.6178 70.9735 61.8615 71.4651C62.1192 71.9984 62.2473 72.5849 62.2356 73.1771C62.2455 73.75 62.1143 74.3165 61.8537 74.8267C61.6001 75.3089 61.2109 75.7062 60.734 75.9698C60.1952 76.2628 59.5884 76.408 58.9753 76.3906H56.5073V69.8726ZM57.5335 75.458H58.9753C59.4035 75.4711 59.8267 75.363 60.1963 75.1463C60.5228 74.9478 60.786 74.6603 60.9549 74.3175C61.1286 73.9626 61.2176 73.5722 61.2147 73.1771C61.2195 72.755 61.1308 72.3372 60.9549 71.9535C60.7926 71.6037 60.5293 71.3105 60.1989 71.1118C59.8261 70.8963 59.4005 70.7892 58.9701 70.8026H57.5283L57.5335 75.458Z" fill="#EDE9E3"/>
<path d="M64.2464 69.8721V73.7247C64.2312 73.9639 64.2651 74.2036 64.346 74.4292C64.4268 74.6548 64.5529 74.8615 64.7166 75.0366C65.0537 75.3363 65.4891 75.5018 65.9402 75.5018C66.3912 75.5018 66.8266 75.3363 67.1638 75.0366C67.3255 74.8607 67.4497 74.6536 67.5288 74.428C67.6079 74.2025 67.6401 73.9631 67.6236 73.7247V69.8721H68.6627V73.7689C68.673 74.2596 68.5586 74.745 68.3302 75.1795C68.1154 75.5835 67.7853 75.9144 67.382 76.1303C66.9352 76.3541 66.4424 76.4706 65.9428 76.4706C65.4431 76.4706 64.9503 76.3541 64.5036 76.1303C64.1002 75.9144 63.7701 75.5835 63.5553 75.1795C63.327 74.745 63.2125 74.2596 63.2228 73.7689V69.8721H64.2464Z" fill="#EDE9E3"/>
<path d="M73.1847 73.6416V76.3901H72.1455V69.8721H73.1847V72.7115H76.7151V69.8721H77.7543V76.3901H76.7151V73.6416H73.1847Z" fill="#EDE9E3"/>
<path d="M81.21 69.8721H82.6258L85.3068 76.3901H84.1534L83.5299 74.808H80.3059L79.6824 76.3901H78.5342L81.21 69.8721ZM83.1662 73.8754L81.9114 70.719L80.6644 73.8754H83.1662Z" fill="#EDE9E3"/>
<path d="M87.1071 76.3901H86.0835V69.8721H87.863L90.8973 75.6549V69.8721H91.9209V76.3901H90.144L87.1071 70.6073V76.3901Z" fill="#EDE9E3"/>
<path d="M93.269 69.8726H95.7344C96.3546 69.8537 96.9687 69.9998 97.514 70.296C97.9921 70.5655 98.3777 70.9729 98.6206 71.4651C98.8783 71.9984 99.0065 72.5849 98.9947 73.1771C99.0046 73.75 98.8735 74.3165 98.6129 74.8267C98.3603 75.3088 97.9719 75.7062 97.4958 75.9698C96.9558 76.2624 96.3483 76.4076 95.7344 76.3906H93.269V69.8726ZM94.2926 75.458H95.7344C96.1626 75.4711 96.5859 75.363 96.9554 75.1463C97.282 74.9478 97.5451 74.6603 97.714 74.3175C97.8888 73.963 97.9778 73.5723 97.9738 73.1771C97.9786 72.755 97.8899 72.3372 97.714 71.9535C97.5525 71.6032 97.289 71.3098 96.958 71.1118C96.5853 70.8961 96.1596 70.789 95.7292 70.8026H94.2874L94.2926 75.458Z" fill="#EDE9E3"/>
<path d="M100.056 69.8721H101.095V76.3901H100.056V69.8721Z" fill="#EDE9E3"/>
<path d="M104.307 71.0077C103.966 71.2095 103.688 71.5029 103.505 71.8546C103.303 72.249 103.202 72.6873 103.211 73.1302C103.199 73.58 103.297 74.0259 103.497 74.4291C103.67 74.7768 103.941 75.0665 104.276 75.263C104.635 75.4592 105.039 75.556 105.448 75.5436C105.743 75.5584 106.038 75.5141 106.316 75.4132C106.594 75.3124 106.849 75.1571 107.066 74.9565C107.471 74.5652 107.736 74.0525 107.822 73.4965L108.752 73.868C108.648 74.3543 108.441 74.8129 108.147 75.2137C107.853 75.6107 107.466 75.9292 107.019 76.1411C106.532 76.37 105.999 76.4846 105.461 76.4762C104.852 76.4899 104.252 76.3382 103.723 76.0372C103.231 75.7542 102.83 75.3382 102.564 74.837C102.286 74.3087 102.145 73.7192 102.154 73.1224C102.146 72.5259 102.294 71.9377 102.582 71.4156C102.86 70.9117 103.271 70.4938 103.77 70.2076C104.285 69.9145 104.868 69.7638 105.461 69.7712C105.954 69.7603 106.443 69.8635 106.89 70.0725C107.275 70.2582 107.611 70.5313 107.872 70.8701C108.115 71.1948 108.292 71.5648 108.391 71.9586L107.459 72.3794C107.375 71.9161 107.143 71.4923 106.799 71.1714C106.429 70.8488 105.949 70.6805 105.458 70.7012C105.054 70.6964 104.656 70.8024 104.307 71.0077Z" fill="#EDE9E3"/>
<path d="M111.62 69.8721H113.036L115.717 76.3901H114.563L113.94 74.808H110.716L110.093 76.3901H108.929L111.62 69.8721ZM113.576 73.8754L112.327 70.719L111.08 73.8754H113.576Z" fill="#EDE9E3"/>
<path d="M117.524 76.3905H116.5V69.8725H119.527C119.924 69.8581 120.319 69.9477 120.672 70.1322C120.973 70.2964 121.22 70.5435 121.384 70.8441C121.544 71.1436 121.626 71.4786 121.623 71.8183C121.622 72.1515 121.539 72.4792 121.379 72.7717C121.215 73.0763 120.968 73.3284 120.667 73.4991C120.318 73.6897 119.924 73.7838 119.527 73.7718H117.524V76.3905ZM119.433 72.8054C119.724 72.8197 120.01 72.7274 120.238 72.5457C120.337 72.4547 120.415 72.3444 120.469 72.2217C120.522 72.099 120.55 71.9665 120.55 71.8325C120.55 71.6986 120.522 71.5661 120.469 71.4434C120.415 71.3207 120.337 71.2104 120.238 71.1194C120.01 70.9377 119.724 70.8454 119.433 70.8596H117.524V72.8158L119.433 72.8054Z" fill="#EDE9E3"/>
</svg>
