<svg width="32" height="28" viewBox="0 0 32 28" fill="none" xmlns="http://www.w3.org/2000/svg">
<path d="M1.12994 18.5532L1.12993 10.0067L7.06432 10.0067L7.06432 9.44463L0.567871 9.44463L0.567871 18.5532L1.12994 18.5532Z" fill="#191919" stroke="#191919" stroke-width="0.5"/>
<path d="M1.12994 9.44461L1.12993 17.9911L7.06432 17.9911L7.06432 18.5532L0.567871 18.5532L0.567871 9.44458L1.12994 9.44461Z" fill="#191919" stroke="#191919" stroke-width="0.5"/>
<path d="M6.92676 9.51909L15.8125 0.633301L16.1981 1.01884L7.31229 9.90463L6.92676 9.51909Z" fill="#191919" stroke="#191919" stroke-width="0.5"/>
<path d="M16.6077 0.529298V27.4707H16.0625L16.0625 0.529297L16.6077 0.529298Z" fill="#191919" stroke="#191919" stroke-width="0.5"/>
<path d="M21.6238 8.90304L31.4323 18.7115L31.0468 19.097L21.2383 9.28857L21.6238 8.90304Z" fill="#191919" stroke="#191919" stroke-width="0.5"/>
<path d="M31.4324 9.28861L21.6239 19.0971L21.2384 18.7116L31.0469 8.90308L31.4324 9.28861Z" fill="#191919" stroke="#191919" stroke-width="0.5"/>
<path d="M6.92676 18.4807L15.8125 27.3665L16.1981 26.9809L7.31229 18.0951L6.92676 18.4807Z" fill="#191919" stroke="#191919" stroke-width="0.5"/>
</svg>
