<svg width="32" height="29" viewBox="0 0 32 29" fill="none" xmlns="http://www.w3.org/2000/svg">
<path d="M1.29888 18.9082L1.29888 10.3616L7.23327 10.3616L7.23327 9.79961L0.736816 9.79961L0.736816 18.9082L1.29888 18.9082Z" fill="#191919" stroke="#191919" stroke-width="0.5"/>
<path d="M1.29888 9.79959L1.29888 18.3461L7.23327 18.3461L7.23327 18.9082L0.736816 18.9082L0.736816 9.79956L1.29888 9.79959Z" fill="#191919" stroke="#191919" stroke-width="0.5"/>
<path d="M7.0957 9.87407L15.9815 0.988281L16.367 1.37382L7.48124 10.2596L7.0957 9.87407Z" fill="#191919" stroke="#191919" stroke-width="0.5"/>
<path d="M16.7767 0.884278V27.8257H16.2314L16.2314 0.884277L16.7767 0.884278Z" fill="#191919" stroke="#191919" stroke-width="0.5"/>
<path d="M7.0957 18.8356L15.9815 27.7214L16.367 27.3359L7.48124 18.4501L7.0957 18.8356Z" fill="#191919" stroke="#191919" stroke-width="0.5"/>
<path d="M24.835 16.4383C24.2744 17.8242 23.1974 18.9385 21.8311 19.5454L21.4248 18.6473C22.5601 18.1493 23.4564 17.2278 23.923 16.0788C24.3895 14.9302 24.3895 13.6447 23.923 12.4958C23.4564 11.3472 22.5601 10.4256 21.4248 9.92727L21.8311 9.00928C23.1974 9.61655 24.2743 10.7305 24.835 12.1164C25.3953 13.5026 25.3953 15.052 24.835 16.4383Z" fill="#191919"/>
<path d="M29.8902 19.1189C28.3906 22.1717 25.5607 24.357 22.2278 25.0356L22.0371 24.0925C25.0802 23.4888 27.6687 21.5037 29.0412 18.7217C30.4138 15.9397 30.4138 12.6776 29.0412 9.8956C27.6686 7.1137 25.0802 5.12859 22.0371 4.52487L22.2278 3.52148C25.5607 4.20007 28.3906 6.38537 29.8902 9.43821C31.3902 12.491 31.3902 16.0664 29.8902 19.1189Z" fill="#191919"/>
</svg>
