<svg width="14" height="14" viewBox="0 0 14 14" fill="none" xmlns="http://www.w3.org/2000/svg">
<path d="M8.96089 0.315409C8.04271 0.069388 7.14121 0.761751 7.14201 1.71236L7.14658 6.91148L4.55103 2.40665C4.07638 1.58304 2.9495 1.43415 2.2773 2.10635C1.60519 2.77851 1.75399 3.90543 2.57765 4.37999L7.08236 6.97558L1.88348 6.97101C0.932906 6.97021 0.240503 7.87172 0.486564 8.7899C0.732546 9.70812 1.78294 10.1426 2.60579 9.66662L7.10577 7.0633L4.5026 11.5634C4.02659 12.3862 4.46107 13.4365 5.37933 13.6826C6.29751 13.9286 7.19901 13.2362 7.19821 12.2856L7.19364 7.08655L9.78919 11.5913C10.2638 12.415 11.3907 12.5638 12.0629 11.8917C12.735 11.2195 12.5862 10.0926 11.7626 9.618L7.25786 7.02245L12.4567 7.02698C13.4073 7.02778 14.0997 6.12627 13.8537 5.20809C13.6077 4.28987 12.5573 3.85536 11.7344 4.33137L7.23429 6.93477L9.83762 2.43463C10.3136 1.61182 9.87915 0.561471 8.96089 0.315409Z" fill="#191919"/>
</svg>
