<?xml version="1.0" standalone="no"?>
<!DOCTYPE svg PUBLIC "-//W3C//DTD SVG 20010904//EN"
 "http://www.w3.org/TR/2001/REC-SVG-20010904/DTD/svg10.dtd">
<svg version="1.0" xmlns="http://www.w3.org/2000/svg"
 width="476.000000pt" height="476.000000pt" viewBox="0 0 476.000000 476.000000"
 preserveAspectRatio="xMidYMid meet">
<metadata>
Created by potrace 1.14, written by Peter Selinger 2001-2017
</metadata>
<g transform="translate(0.000000,476.000000) scale(0.100000,-0.100000)"
fill="#000000" stroke="none">
<path d="M1619 4136 c-2 -2 -33 -6 -69 -9 -246 -22 -541 -131 -767 -283 -393
-265 -653 -655 -749 -1121 -46 -224 -39 -554 17 -768 95 -367 290 -680 569
-915 36 -30 67 -58 70 -61 17 -22 213 -140 305 -184 112 -54 284 -116 365
-131 25 -4 47 -8 50 -9 3 -1 25 -5 50 -9 25 -5 54 -11 65 -14 11 -3 378 -7
815 -9 l795 -4 0 879 c0 944 -2 906 51 945 33 25 102 25 137 2 63 -41 60 6 60
-952 l0 -873 688 0 687 0 0 1760 0 1760 -687 0 -688 0 0 -578 c0 -541 -1 -581
-18 -610 -49 -83 -184 -75 -221 13 -12 29 -14 131 -14 605 l0 570 -754 0
c-414 0 -755 -2 -757 -4z"/>
</g>
</svg>
